<svg
	xmlns="http://www.w3.org/2000/svg"
	viewBox="0 0 100 100"
	aria-label="two beamed musical notes with ears"
>
	<path
		fill="#8866cc"
    d="M 17.649763,27.091907 92.652647,0.07053376 93.464619,72.197282 c 0.0732,6.502554 -1.033904,26.195178 -10.644213,24.298316 -7.390587,-3.01113 -12.412301,-8.362897 -15.415159,-15.610599 -1.399917,-3.394335 -2.714253,-7.01918 -2.443203,-10.740686 0.340155,-4.670337 3.306295,-10.054413 6.970064,-12.97067 5.830865,-4.641207 15.450507,3.781166 15.450507,3.781166 L 84.813136,20.044447 23.342705,37.878638 25.739331,81.968409 c 0.356336,6.555367 -1.690324,19.516051 -6.937964,17.89111 C 15.430616,98.815763 12.34752,96.863406 7.2108686,88.806175 5.5129407,86.142843 5.0055612,82.674429 5.1528405,79.556791 c 0.183839,-3.891543 2.8440779,-7.761614 6.0200145,-10.018009 3.189269,-2.265866 8.500011,1.905961 8.500011,1.905961 M 23.170251,33.362099 84.485514,14.48689 84.220567,8.2399358 23.002286,29.453122 Z m -3.615828,52.986209 c -9.350797,3.940785 2.203294,11.549107 1.505207,1.654032 0,0 -2.834448,-12.747668 -3.964416,-12.841723 -1.293231,-0.107644 -12.4433683,3.811252 -5.227105,14.095981 -1.8880811,-2.376702 -4.6381237,-9.29629 5.436642,-11.774152 m 67.749413,1.414718 c -11.923517,6.195109 3.283676,14.41667 1.96013,2.093665 0,0 -3.665948,-16.618177 -5.020704,-16.996094 -1.798588,-0.501728 -18.078576,4.37863 -8.198369,18.612282 C 71.38344,79.544295 68.77145,69.693545 82.044022,67.159294"
	/>
</svg>